<?xml version="1.0" encoding="UTF-8"?>
<!DOCTYPE svg PUBLIC "-//W3C//DTD SVG 1.1//EN" "http://www.w3.org/Graphics/SVG/1.1/DTD/svg11.dtd">
<!-- Creator: CorelDRAW 2019 -->
<svg xmlns="http://www.w3.org/2000/svg" xml:space="preserve" width="1.88197in" height="2.1045in" version="1.1" style="shape-rendering:geometricPrecision; text-rendering:geometricPrecision; image-rendering:optimizeQuality; fill-rule:evenodd; clip-rule:evenodd"
viewBox="0 0 547.03 611.72"
 xmlns:xlink="http://www.w3.org/1999/xlink"
 xmlns:xodm="http://www.corel.com/coreldraw/odm/2003">
 <defs>
  <style type="text/css">
   <![CDATA[
    .fil3 {fill:none}
    .fil2 {fill:#FEFEFE}
    .fil1 {fill:#FEFEFE}
    .fil0 {fill:url(#id1)}
    .fil4 {fill:url(#id2)}
   ]]>
  </style>
   <clipPath id="id0">
    <path d="M273.74 0c107.94,0 195.45,87.51 195.45,195.45l0 312.78 -390.9 0 0 -312.78c0,-107.94 87.51,-195.45 195.45,-195.45z"/>
   </clipPath>
  <linearGradient id="id1" gradientUnits="userSpaceOnUse" x1="78.29" y1="254.11" x2="469.19" y2="254.11">
   <stop offset="0" style="stop-opacity:1; stop-color:#ACB7DE"/>
   <stop offset="1" style="stop-opacity:1; stop-color:#4B49AC"/>
  </linearGradient>
  <linearGradient id="id2" gradientUnits="userSpaceOnUse" x1="-0" y1="567.19" x2="564.45" y2="568.5">
   <stop offset="0" style="stop-opacity:1; stop-color:#B9B7DC"/>
   <stop offset="1" style="stop-opacity:1; stop-color:#4B49AC"/>
  </linearGradient>
 </defs>
 <g id="Layer_x0020_1">
  <metadata id="CorelCorpID_0Corel-Layer"/>
  <path class="fil0" d="M273.74 0c107.94,0 195.45,87.51 195.45,195.45l0 312.78 -390.9 0 0 -312.78c0,-107.94 87.51,-195.45 195.45,-195.45z"/>
  <g style="clip-path:url(#id0)">
   <g id="_821984408">
    <rect class="fil1" x="151.94" y="485.89" width="242.19" height="26.91" rx="13.46" ry="13.46"/>
    <path class="fil2" d="M179.38 472.12c-62.84,-56.23 -50.63,-124.21 -0.65,-161.84 33.27,-25.05 84.41,-39.48 92.69,-80 -11.12,0.24 -13.77,-5.26 -7.59,-8.37 -11.35,-9.33 -9.65,-24.87 7.14,-31.38 -5.79,-3.72 -6.03,-9.19 0.24,-12.66l2.72 -59.92 2.4 60.12c6.03,2.92 6.2,8.88 0.41,12.7 16.31,4.13 20.04,21.3 6.93,31.45 5.97,0.27 5.1,8.44 -7.63,7.94 15.33,50.03 55.71,51.37 92.37,83.2 42.74,37.09 69.51,95.66 0.16,158.04l-189.2 0.73z"/>
    <polygon class="fil2" points="136.63,216.11 141.15,230.09 155.83,230.06 143.93,238.67 148.5,252.62 136.63,243.97 124.77,252.62 129.34,238.67 117.44,230.06 132.12,230.09 "/>
    <polygon class="fil2" points="413.57,216.11 418.08,230.09 432.77,230.06 420.87,238.67 425.44,252.62 413.57,243.97 401.71,252.62 406.27,238.67 394.38,230.06 409.06,230.09 "/>
    <polygon class="fil2" points="378.89,102.54 383.4,116.51 398.08,116.48 386.19,125.09 390.75,139.05 378.89,130.39 367.03,139.05 371.59,125.09 359.69,116.48 374.38,116.51 "/>
    <polygon class="fil2" points="168.32,102.54 172.83,116.51 187.52,116.48 175.62,125.09 180.19,139.05 168.32,130.39 156.46,139.05 161.02,125.09 149.13,116.48 163.81,116.51 "/>
    <polygon class="fil2" points="273.35,47.57 280.1,68.48 302.07,68.44 284.27,81.32 291.1,102.2 273.35,89.25 255.6,102.2 262.43,81.32 244.63,68.44 266.6,68.48 "/>
   </g>
  </g>
  <path class="fil3" d="M273.74 0c107.94,0 195.45,87.51 195.45,195.45l0 312.78 -390.9 0 0 -312.78c0,-107.94 87.51,-195.45 195.45,-195.45z"/>
  <path class="fil4" d="M29.08 558.15c-8.81,9.35 -27.3,-5.92 -12.75,-15.58 29.86,-8.79 49.1,-3.13 65.86,27.26 27.78,50.89 65.12,52.62 72.94,20.18 -0.24,-33.83 -21.36,-40.64 -41.78,-30.45 -9.37,7.4 -9.15,25.22 6.27,22.19 4.87,-3.38 6.56,-8.54 0.81,-11.21 5.16,-22.08 36.74,3.31 22.66,26.56 -29.9,22.65 -49.29,-35.4 -65.86,-50.28 57.01,-62.55 149.61,104.89 196.7,49.78 51.58,55.47 135.54,-110.56 197.03,-49.78 -16.41,15.11 -23.96,43.67 -46.03,53.82 -14.17,5.48 -24.78,-1.35 -21.95,-21.95 3.35,-18.04 20.96,-23.04 25.49,-7.79 -11.09,2.6 -3.07,14.4 4.96,12.04 15.73,-10.62 5.46,-30.11 -20.54,-27.62 -28.44,6.37 -23.96,46.03 -7.79,53.11 50.87,22.66 59.25,-90.29 120.03,-68.34 21.63,8.75 6.01,31.77 -3.19,18.06 7.21,-22.02 -31.75,-4.25 -5.66,10.62 34.07,16.91 46.54,-37.68 2.12,-42.49 -17.37,-1.01 -31.73,3.13 -42.49,13.46 -57.83,-61.25 -129.12,62.32 -179.87,57.36 -24.58,-5.75 -21.8,-38.28 2.48,-54.88 49.27,-18.37 37.27,38.88 10.98,21.6 23.26,28.04 51.92,-26.5 11.33,-36.82 -20.5,-1.13 -35.68,8.92 -46.74,27.62 -15.03,-24.62 -31.88,-30.32 -49.75,-25.67 -33.19,11.46 -13.08,58.77 13.45,36.82 -15.17,4.03 -26.2,-0.73 -22.13,-16.46 7.63,-13.46 30.85,-15.33 45.68,5.66 15.84,35.05 2.21,47.68 -29.04,37.89 -51,-19.25 -106.21,-104.43 -160.75,-53.11 -17.24,-18.57 -58.18,-18.14 -70.81,6.02 -5.19,22.76 17.58,30.47 35.41,21.6 16.05,-21.13 -21.32,-23.68 -7.08,-9.21z"/>
 </g>
</svg>
